<svg width="24" height="24" viewBox="0 0 24 24" fill="none" xmlns="http://www.w3.org/2000/svg">
<path d="M16.43 9.44L7.5 4.21" stroke="black" stroke-width="1.5" stroke-linecap="round" stroke-linejoin="round"/>
<path d="M16.43 9.44V19.79" stroke="black" stroke-width="1.5" stroke-linecap="round" stroke-linejoin="round"/>
<path d="M12 17.11L3 12" stroke="black" stroke-width="1.5" stroke-linecap="round" stroke-linejoin="round"/>
<path d="M12 17.11L21 11.92" stroke="black" stroke-width="1.5" stroke-linecap="round" stroke-linejoin="round"/>
<path d="M7.5 9.4L16.5 4.21" stroke="black" stroke-width="1.5" stroke-linecap="round" stroke-linejoin="round"/>
<path d="M7.5 9.4V19.79" stroke="black" stroke-width="1.5" stroke-linecap="round" stroke-linejoin="round"/>
<path d="M3.27802 6.965L12 12L20.721 6.965" stroke="black" stroke-width="1.5" stroke-linecap="round" stroke-linejoin="round"/>
<path d="M12 12V22.07" stroke="black" stroke-width="1.5" stroke-linecap="round" stroke-linejoin="round"/>
<path fill-rule="evenodd" clip-rule="evenodd" d="M21 15.996V8.004C21 7.261 20.604 6.575 19.961 6.204L13.039 2.208C12.396 1.837 11.604 1.837 10.961 2.208L4.039 6.204C3.396 6.575 3 7.261 3 8.004V15.996C3 16.739 3.396 17.425 4.039 17.796L10.961 21.792C11.604 22.163 12.396 22.163 13.039 21.792L19.961 17.796C20.604 17.425 21 16.739 21 15.996Z" stroke="black" stroke-width="1.5" stroke-linecap="round" stroke-linejoin="round"/>
</svg>
