<svg width="24" height="24" viewBox="0 0 24 24" fill="none" xmlns="http://www.w3.org/2000/svg">
<path d="M15.192 21H2.929C2.416 21 2 20.634 2 20.183V8C2 7.448 2.448 7 3 7H14C14.552 7 15 7.448 15 8V10" stroke="black" stroke-width="1.5" stroke-linecap="round" stroke-linejoin="round"/>
<path d="M20 6L19 10" stroke="black" stroke-width="1.5" stroke-linecap="round" stroke-linejoin="round"/>
<path fill-rule="evenodd" clip-rule="evenodd" d="M14.107 10H20.665C21.095 10 21.478 10.275 21.614 10.684L21.947 11.684C22.164 12.331 21.682 13 20.999 13H13.774C13.091 13 12.609 12.331 12.825 11.684L13.158 10.684C13.295 10.275 13.677 10 14.107 10Z" stroke="black" stroke-width="1.5" stroke-linecap="round" stroke-linejoin="round"/>
<path fill-rule="evenodd" clip-rule="evenodd" d="M11 3H6C5.448 3 5 3.448 5 4V7H12V4C12 3.448 11.552 3 11 3Z" stroke="black" stroke-width="1.5" stroke-linecap="round" stroke-linejoin="round"/>
<path d="M21.36 12.926L20.472 20.123C20.41 20.624 19.984 21 19.48 21H15.193C14.688 21 14.262 20.624 14.201 20.123L13.307 12.885" stroke="black" stroke-width="1.5" stroke-linecap="round" stroke-linejoin="round"/>
</svg>
