<svg width="24" height="24" viewBox="0 0 24 24" fill="none" xmlns="http://www.w3.org/2000/svg">
<path d="M6.5 9V20C6.5 20.552 6.948 21 7.5 21H16.5C17.052 21 17.5 20.552 17.5 20V9" stroke="black" stroke-width="1.5" stroke-linecap="round" stroke-linejoin="round"/>
<path d="M6.5 13H3.5C2.948 13 2.5 12.552 2.5 12V7.416C2.5 6.248 3.178 5.186 4.238 4.694L7.702 3.088C8.463 2.735 9.364 2.895 9.958 3.488L11.293 4.823C11.684 5.214 12.317 5.214 12.707 4.823L14.042 3.488C14.635 2.895 15.536 2.735 16.298 3.088L19.762 4.694C20.822 5.185 21.5 6.247 21.5 7.416V12C21.5 12.552 21.052 13 20.5 13H17.5" stroke="black" stroke-width="1.5" stroke-linecap="round" stroke-linejoin="round"/>
</svg>
